<svg width="15" height="10" viewBox="0 0 15 10" fill="none" xmlns="http://www.w3.org/2000/svg">
<path d="M0 0.625C0 0.279822 0.279822 0 0.625 0H14.375C14.7202 0 15 0.279822 15 0.625C15 0.970178 14.7202 1.25 14.375 1.25H0.625C0.279822 1.25 0 0.970178 0 0.625Z" fill="#9B9B9B"/>
<path d="M0 4.625C0 4.27982 0.279822 4 0.625 4H14.375C14.7202 4 15 4.27982 15 4.625C15 4.97018 14.7202 5.25 14.375 5.25H0.625C0.279822 5.25 0 4.97018 0 4.625Z" fill="#9B9B9B"/>
<path d="M0.625 8C0.279822 8 0 8.27982 0 8.625C0 8.97018 0.279822 9.25 0.625 9.25H14.375C14.7202 9.25 15 8.97018 15 8.625C15 8.27982 14.7202 8 14.375 8H0.625Z" fill="#9B9B9B"/>
</svg>
